<svg width="183" height="40" viewBox="0 0 183 40" fill="none" xmlns="http://www.w3.org/2000/svg">
<path d="M34.1422 5.85781C30.3647 2.08031 25.3422 0 20 0C14.6578 0 9.63531 2.08031 5.85781 5.85781C2.08031 9.63531 0 14.6578 0 20C0 25.3422 2.08039 30.3646 5.85781 34.1422C9.63523 37.9198 14.6578 40 20 40C25.3422 40 30.3647 37.9197 34.1422 34.1422C37.9197 30.3647 40 25.3422 40 20C40 14.6578 37.9196 9.63539 34.1422 5.85781Z" fill="#33CC95"/>
<g clip-path="url(#clip0_35912_235)">
<path d="M20.5714 8V33.1429" stroke="white" stroke-width="2" stroke-linecap="round" stroke-linejoin="round"/>
<path d="M26.2857 12.5714H17.7143C16.6534 12.5714 15.636 12.9929 14.8859 13.743C14.1357 14.4931 13.7143 15.5106 13.7143 16.5714C13.7143 17.6323 14.1357 18.6497 14.8859 19.3999C15.636 20.15 16.6534 20.5714 17.7143 20.5714H23.4286C24.4894 20.5714 25.5069 20.9929 26.257 21.743C27.0072 22.4931 27.4286 23.5106 27.4286 24.5714C27.4286 25.6323 27.0072 26.6497 26.257 27.3999C25.5069 28.15 24.4894 28.5714 23.4286 28.5714H13.7143" stroke="white" stroke-width="2" stroke-linecap="round" stroke-linejoin="round"/>
</g>
<path d="M77.4396 14.704L73.5516 28H69.9276L67.5036 18.712L65.0796 28H61.4316L57.5196 14.704H60.9276L63.2796 24.832L65.8236 14.704H69.3756L71.8716 24.808L74.2236 14.704H77.4396ZM87.1296 28L82.6176 22.336V28H79.2576V10.24H82.6176V20.344L87.0816 14.704H91.4496L85.5936 21.376L91.4976 28H87.1296ZM115.504 14.512C117.136 14.512 118.448 15.016 119.44 16.024C120.448 17.016 120.952 18.408 120.952 20.2V28H117.592V20.656C117.592 19.616 117.328 18.824 116.8 18.28C116.272 17.72 115.552 17.44 114.64 17.44C113.728 17.44 113 17.72 112.456 18.28C111.928 18.824 111.664 19.616 111.664 20.656V28H108.304V20.656C108.304 19.616 108.04 18.824 107.512 18.28C106.984 17.72 106.264 17.44 105.352 17.44C104.424 17.44 103.688 17.72 103.144 18.28C102.616 18.824 102.352 19.616 102.352 20.656V28H98.9919V14.704H102.352V16.312C102.784 15.752 103.336 15.312 104.008 14.992C104.696 14.672 105.448 14.512 106.264 14.512C107.304 14.512 108.232 14.736 109.048 15.184C109.864 15.616 110.496 16.24 110.944 17.056C111.376 16.288 112 15.672 112.816 15.208C113.648 14.744 114.544 14.512 115.504 14.512ZM130.044 28.216C128.764 28.216 127.612 27.936 126.588 27.376C125.564 26.8 124.756 25.992 124.164 24.952C123.588 23.912 123.3 22.712 123.3 21.352C123.3 19.992 123.596 18.792 124.188 17.752C124.796 16.712 125.62 15.912 126.66 15.352C127.7 14.776 128.86 14.488 130.14 14.488C131.42 14.488 132.58 14.776 133.62 15.352C134.66 15.912 135.476 16.712 136.068 17.752C136.676 18.792 136.98 19.992 136.98 21.352C136.98 22.712 136.668 23.912 136.044 24.952C135.436 25.992 134.604 26.8 133.548 27.376C132.508 27.936 131.34 28.216 130.044 28.216ZM130.044 25.288C130.652 25.288 131.22 25.144 131.748 24.856C132.292 24.552 132.724 24.104 133.044 23.512C133.364 22.92 133.524 22.2 133.524 21.352C133.524 20.088 133.188 19.12 132.516 18.448C131.86 17.76 131.052 17.416 130.092 17.416C129.132 17.416 128.324 17.76 127.668 18.448C127.028 19.12 126.708 20.088 126.708 21.352C126.708 22.616 127.02 23.592 127.644 24.28C128.284 24.952 129.084 25.288 130.044 25.288ZM146.813 14.512C148.397 14.512 149.677 15.016 150.653 16.024C151.629 17.016 152.117 18.408 152.117 20.2V28H148.757V20.656C148.757 19.6 148.493 18.792 147.965 18.232C147.437 17.656 146.717 17.368 145.805 17.368C144.877 17.368 144.141 17.656 143.597 18.232C143.069 18.792 142.805 19.6 142.805 20.656V28H139.445V14.704H142.805V16.36C143.253 15.784 143.821 15.336 144.509 15.016C145.213 14.68 145.981 14.512 146.813 14.512ZM167.672 21.064C167.672 21.544 167.64 21.976 167.576 22.36H157.856C157.936 23.32 158.272 24.072 158.864 24.616C159.456 25.16 160.184 25.432 161.048 25.432C162.296 25.432 163.184 24.896 163.712 23.824H167.336C166.952 25.104 166.216 26.16 165.128 26.992C164.04 27.808 162.704 28.216 161.12 28.216C159.84 28.216 158.688 27.936 157.664 27.376C156.656 26.8 155.864 25.992 155.288 24.952C154.728 23.912 154.448 22.712 154.448 21.352C154.448 19.976 154.728 18.768 155.288 17.728C155.848 16.688 156.632 15.888 157.64 15.328C158.648 14.768 159.808 14.488 161.12 14.488C162.384 14.488 163.512 14.76 164.504 15.304C165.512 15.848 166.288 16.624 166.832 17.632C167.392 18.624 167.672 19.768 167.672 21.064ZM164.192 20.104C164.176 19.24 163.864 18.552 163.256 18.04C162.648 17.512 161.904 17.248 161.024 17.248C160.192 17.248 159.488 17.504 158.912 18.016C158.352 18.512 158.008 19.208 157.88 20.104H164.192ZM182.845 14.704L174.613 34.288H171.037L173.917 27.664L168.589 14.704H172.357L175.789 23.992L179.269 14.704H182.845Z" fill="white"/>
<defs>
<clipPath id="clip0_35912_235">
<rect width="27.4286" height="27.4286" fill="white" transform="translate(6.85715 6.85714)"/>
</clipPath>
</defs>
</svg>
